<?xml version="1.0" ?><svg id="Layer_1" style="enable-background:new 0 0 64 64;" version="1.1" viewBox="0 0 64 64" xml:space="preserve" xmlns="http://www.w3.org/2000/svg" xmlns:xlink="http://www.w3.org/1999/xlink"><style type="text/css">
	.st0{fill:#62BEE7;}
	.st1{fill:#474E5E;}
	.st2{fill:#F3EEE4;}
	.st3{fill:#FFFFFF;}
	.st4{fill:#E8DCCA;}
	.st5{opacity:0.1;fill:#231F20;}
	.st6{fill:#506268;}
	.st7{fill:#EB5151;}
	.st8{fill:#C64444;}
	.st9{fill:#9CCB5B;}
	.st10{fill:#404A4C;}
	.st11{fill:#676767;}
	.st12{fill:#E0E1E5;}
	.st13{fill:#9D9EA0;}
	.st14{fill:#B3B4B7;}
	.st15{opacity:0.1;}
	.st16{fill:#231F20;}
	.st17{fill:#FACC20;}
	.st18{fill:#FDEF34;}
	.st19{fill:#F7A90B;}
	.st20{fill:#20B8EA;}
	.st21{fill:#00A8EA;}
	.st22{fill:#33D3F4;}
	.st23{opacity:0.25;fill:#FFFFFF;}
	.st24{fill:#CACBCE;}
	.st25{fill:#2E3545;}
	.st26{fill:#8DAF4A;}
	.st27{fill:#F9C2AF;}
	.st28{fill:#AFDDF4;}
	.st29{fill:#677177;}
	.st30{fill:#FFEDB3;}
	.st31{fill:#695652;}
	.st32{fill:#30A7BF;}
	.st33{fill:#4D5556;}
	.st34{opacity:0.35;}
	.st35{fill:#FFCB04;}
	.st36{fill:#99E9FA;}
	.st37{opacity:0.2;}
	.st38{opacity:3.000000e-02;}
	.st39{fill:#9ECA5B;}
	.st40{fill:#98BA56;}
	.st41{fill:#40EEFF;}
	.st42{fill:#FF6A52;}
	.st43{opacity:0.1;fill:#FFFFFF;}
	.st44{opacity:0.4;}
	.st45{fill:#57606D;}
	.st46{fill:#BACA5B;}
	.st47{opacity:0.25;}
	.st48{opacity:5.000000e-02;fill:#231F20;}
	.st49{opacity:0.2;fill:#FFFFFF;}
	.st50{opacity:0.3;}
	.st51{fill:#FFD82F;}
	.st52{fill:#F4C121;}
	.st53{fill:#EF9D0A;}
	.st54{fill:#F9E532;}
	.st55{fill:#F4C01E;}
	.st56{fill:#FFE14D;}
	.st57{fill:#B7C156;}
	.st58{fill:#DBA92C;}
	.st59{fill:#363D4D;}
	.st60{fill:#3F4656;}
	.st61{fill:#463E33;}
	.st62{fill:none;}
	.st63{opacity:4.000000e-02;}
	.st64{fill:#4DB6AC;}
	.st65{fill:#CADE49;}
	.st66{fill:#9FD343;}
	.st67{fill:#AAD643;}
	.st68{fill:#82C736;}
	.st69{opacity:0.3;fill:#FFFFFF;}
	.st70{fill:#FFD640;}
	.st71{opacity:0.5;}
	.st72{opacity:0.6;}
</style><g><circle class="st1" cx="32" cy="32" r="32"/><g><circle class="st1" cx="31.2" cy="32.7" r="11.9"/><path class="st25" d="M39.7,24.2L22.8,41.1c4.7,4.7,12.2,4.7,16.8,0C44.3,36.4,44.3,28.9,39.7,24.2z"/><g><path class="st3" d="M35.5,33.8c-0.2-0.4-0.7-1.7-3.5-2.3v-3.4c0.7,0.2,1.1,0.7,1.3,1.4c0.2,0.6,0.5,0.9,1,0.9     c0.3,0,2-0.5,0.2-2.7c-0.3-0.4-0.8-1-2.6-1.2v-1.4h-1v1.4c-3.2,0.3-3.5,2.4-3.5,3.4c0,2.8,2.8,3.3,3.5,3.5v3.8     c-1.3-0.3-1.6-1.7-1.8-2.1c-0.2-0.6-0.7-0.7-1-0.7c-0.8,0-1.1,0.8-1.1,1c0,0.4,0.2,2,2.1,3c0.5,0.2,1,0.4,1.7,0.5l0,1.3H32v-1.3     c0.8-0.1,1.4-0.3,2-0.6C35.6,37.4,36.1,35.5,35.5,33.8z M31,31.3c-0.8-0.4-1.4-0.5-1.5-1.6c0-0.5,0.2-1.2,1.5-1.6V31.3z M32,37.3     v-3.6c1.7,0.6,1.7,1.3,1.7,1.8C33.8,35.9,33.7,36.9,32,37.3z"/></g><g><g><path class="st42" d="M25.5,42.1l-6.4,10.5c-3.3-2-6.1-4.9-8-8.2l10.7-6.1C22.7,39.8,24,41.1,25.5,42.1z"/><path class="st7" d="M31.2,43.7V56c-4.4,0-8.6-1.3-12.1-3.4l6.4-10.5C27.2,43.1,29.1,43.7,31.2,43.7z"/><path class="st19" d="M21.8,38.2l-10.7,6.1C9.1,40.9,8,37,8,32.8v0l12.3,0v0C20.3,34.8,20.8,36.6,21.8,38.2z"/><path class="st21" d="M31.2,9.6v12.3c-2.1,0-4,0.6-5.6,1.6l-6.3-10.6C22.8,10.8,26.8,9.6,31.2,9.6z"/><path class="st18" d="M25.6,23.4c-1.6,1-3,2.4-3.9,4.1l-10.8-5.9c2-3.6,4.9-6.6,8.4-8.7L25.6,23.4z"/><path class="st17" d="M21.7,27.5c-0.9,1.6-1.4,3.3-1.4,5.2L8,32.7c0-4,1.1-7.9,2.9-11.2L21.7,27.5z"/><path class="st8" d="M43.3,52.6c-3.5,2.2-7.7,3.4-12.1,3.4V43.7c2.1,0,4-0.6,5.7-1.6L43.3,52.6z"/><path class="st22" d="M56,32.8c0,8.9-4.7,16.8-11.8,21.1l-0.8-1.3l-6.4-10.5c3.1-1.9,5.2-5.4,5.2-9.3c0-6-4.9-10.9-10.9-10.9V8      C44.9,8,56,19.1,56,32.8z"/></g><path class="st5" d="M31.2,15.4c-9.6,0-17.4,7.8-17.4,17.4s7.8,17.4,17.4,17.4s17.4-7.8,17.4-17.4S40.8,15.4,31.2,15.4z      M31.2,45.8c-7.2,0-13-5.8-13-13c0-7.2,5.8-13,13-13c7.2,0,13,5.8,13,13C44.3,40,38.4,45.8,31.2,45.8z"/></g></g></g></svg>