<?xml version="1.0" ?><svg id="Layer_1" style="enable-background:new 0 0 64 64;" version="1.1" viewBox="0 0 64 64" xml:space="preserve" xmlns="http://www.w3.org/2000/svg" xmlns:xlink="http://www.w3.org/1999/xlink"><style type="text/css">
	.st0{fill:#62BEE7;}
	.st1{fill:#474E5E;}
	.st2{fill:#F3EEE4;}
	.st3{fill:#FFFFFF;}
	.st4{fill:#E8DCCA;}
	.st5{opacity:0.1;fill:#231F20;}
	.st6{fill:#506268;}
	.st7{fill:#EB5151;}
	.st8{fill:#C64444;}
	.st9{fill:#9CCB5B;}
	.st10{fill:#404A4C;}
	.st11{fill:#676767;}
	.st12{fill:#E0E1E5;}
	.st13{fill:#9D9EA0;}
	.st14{fill:#B3B4B7;}
	.st15{opacity:0.1;}
	.st16{fill:#231F20;}
	.st17{fill:#FACC20;}
	.st18{fill:#FDEF34;}
	.st19{fill:#F7A90B;}
	.st20{fill:#20B8EA;}
	.st21{fill:#00A8EA;}
	.st22{fill:#33D3F4;}
	.st23{opacity:0.25;fill:#FFFFFF;}
	.st24{fill:#CACBCE;}
	.st25{fill:#2E3545;}
	.st26{fill:#8DAF4A;}
	.st27{fill:#F9C2AF;}
	.st28{fill:#AFDDF4;}
	.st29{fill:#677177;}
	.st30{fill:#FFEDB3;}
	.st31{fill:#695652;}
	.st32{fill:#30A7BF;}
	.st33{fill:#4D5556;}
	.st34{opacity:0.35;}
	.st35{fill:#FFCB04;}
	.st36{fill:#99E9FA;}
	.st37{opacity:0.2;}
	.st38{opacity:3.000000e-02;}
	.st39{fill:#9ECA5B;}
	.st40{fill:#98BA56;}
	.st41{fill:#40EEFF;}
	.st42{fill:#FF6A52;}
	.st43{opacity:0.1;fill:#FFFFFF;}
	.st44{opacity:0.4;}
	.st45{fill:#57606D;}
	.st46{fill:#BACA5B;}
	.st47{opacity:0.25;}
	.st48{opacity:5.000000e-02;fill:#231F20;}
	.st49{opacity:0.2;fill:#FFFFFF;}
	.st50{opacity:0.3;}
	.st51{fill:#FFD82F;}
	.st52{fill:#F4C121;}
	.st53{fill:#EF9D0A;}
	.st54{fill:#F9E532;}
	.st55{fill:#F4C01E;}
	.st56{fill:#FFE14D;}
	.st57{fill:#B7C156;}
	.st58{fill:#DBA92C;}
	.st59{fill:#363D4D;}
	.st60{fill:#3F4656;}
	.st61{fill:#463E33;}
	.st62{fill:none;}
	.st63{opacity:4.000000e-02;}
	.st64{fill:#4DB6AC;}
	.st65{fill:#CADE49;}
	.st66{fill:#9FD343;}
	.st67{fill:#AAD643;}
	.st68{fill:#82C736;}
	.st69{opacity:0.3;fill:#FFFFFF;}
	.st70{fill:#FFD640;}
	.st71{opacity:0.5;}
	.st72{opacity:0.6;}
</style><g><circle class="st21" cx="32" cy="32" r="32"/><g><g><polygon class="st27" points="51.9,41.6 35.4,25.1 25.3,35.2 12,22 9.3,24.8 25.3,40.8 35.4,30.7 49.2,44.4 45.9,47.7 54.7,47.7      54.7,38.8    "/></g><g><polygon class="st3" points="51.9,41.6 35.4,25.1 25.3,35.2 12,22 9.3,24.8 25.3,40.8 35.4,30.7 49.2,44.4 45.9,47.7 54.7,47.7      54.7,38.8    "/></g><g><polygon class="st58" points="11.3,26.8 11.3,53.5 17.2,53.5 17.2,32.7    "/></g><g><polygon class="st18" points="25.3,40.8 20.2,35.7 20.2,53.5 26,53.5 26,40.1    "/></g><g><polygon class="st8" points="29,37.1 29,53.5 34.8,53.5 34.8,31.3    "/></g><g><polygon class="st46" points="37.8,33 37.8,53.5 43.7,53.5 43.7,38.9    "/></g><g><circle class="st17" cx="45.5" cy="17.2" r="9.2"/><circle class="st18" cx="45.5" cy="17.2" r="6.2"/><path class="st49" d="M37,18c0-5.1,4.1-9.2,9.2-9.2c2.4,0,4.5,0.9,6.1,2.3c-1.7-1.9-4.2-3.1-6.9-3.1c-5.1,0-9.2,4.1-9.2,9.2     c0,2.8,1.2,5.2,3.1,6.9C37.9,22.5,37,20.3,37,18z"/><path class="st5" d="M51.6,10.3c1.4,1.6,2.3,3.8,2.3,6.1c0,5.1-4.1,9.2-9.2,9.2c-2.4,0-4.5-0.9-6.1-2.3c1.7,1.9,4.2,3.1,6.9,3.1     c5.1,0,9.2-4.1,9.2-9.2C54.7,14.4,53.5,11.9,51.6,10.3z"/><g class="st50"><path class="st3" d="M50.8,9.6L37.9,22.5c-0.1-0.2-0.3-0.4-0.4-0.6v0L50.2,9.3h0C50.4,9.4,50.6,9.5,50.8,9.6z"/><path class="st3" d="M53.4,12.4L40.7,25.1c-0.6-0.4-1.2-0.8-1.7-1.3L52,10.7C52.5,11.2,53,11.8,53.4,12.4z"/></g><path class="st19" d="M48.1,17.9c-0.1-0.3-0.4-1.1-2.3-1.5v-2.3c0.5,0.1,0.7,0.4,0.9,0.9c0.1,0.4,0.3,0.6,0.7,0.6     c0.2,0,1.3-0.3,0.2-1.8c-0.2-0.2-0.5-0.6-1.7-0.8v-0.9h-0.7v0.9c-2.1,0.2-2.3,1.6-2.3,2.2c0,1.9,1.8,2.2,2.3,2.3v2.5     c-0.9-0.2-1.1-1.1-1.2-1.4c-0.1-0.4-0.5-0.4-0.6-0.4c-0.5,0-0.7,0.5-0.7,0.7c0,0.2,0.1,1.3,1.4,2c0.3,0.2,0.7,0.3,1.1,0.3l0,0.9     h0.7v-0.9c0.5,0,1-0.2,1.3-0.4C48.2,20.3,48.5,19.1,48.1,17.9z M45.1,16.2c-0.5-0.3-0.9-0.3-1-1c0-0.3,0.1-0.8,1-1V16.2z      M45.8,20.2v-2.4c1.1,0.4,1.1,0.8,1.1,1.2C47,19.3,46.9,20,45.8,20.2z"/></g><g class="st15"><path class="st16" d="M25.1,50.2c-0.1,1-0.9,2.1-1.9,2.4L22,53c-1,0.3-1.8,0.5-1.8,0.5H26V40.8L25.1,50.2z"/></g><g class="st15"><path class="st16" d="M33.9,50.2c-0.1,1-0.9,2.1-1.9,2.4L30.8,53c-1,0.3-1.8,0.5-1.8,0.5h5.8V40.8L33.9,50.2z"/></g><g class="st15"><path class="st16" d="M42.8,50.2c-0.1,1-0.9,2.1-1.9,2.4L39.6,53c-1,0.3-1.8,0.5-1.8,0.5h5.8V40.8L42.8,50.2z"/></g><g class="st15"><path class="st16" d="M16.3,50.2c-0.1,1-0.9,2.1-1.9,2.4L13.2,53c-1,0.3-1.8,0.5-1.8,0.5h5.8V40.8L16.3,50.2z"/></g></g></g></svg>