<?xml version="1.0" ?><svg viewBox="0 0 512 512" xmlns="http://www.w3.org/2000/svg"><g id="Fast_online_payment"><path d="M402.3057,139.7705h-78.479V64.0039A32.695,32.695,0,0,0,291.1318,31.309H94.9048A32.6949,32.6949,0,0,0,62.21,64.0039V456.5685a32.6949,32.6949,0,0,0,32.6951,32.6949h196.227a32.695,32.695,0,0,0,32.6949-32.6949V393.7939h91.0561v-12H323.8267V367.853H383.03v-12H323.8267V335.03h78.479a22.9836,22.9836,0,0,0,22.957-22.9575V162.728A22.9835,22.9835,0,0,0,402.3057,139.7705ZM215.8994,469.0513H170.1372v-12h45.7622Zm92.6875-40.2962a10,10,0,0,1-10,10H87.4492a10,10,0,0,1-10-10V91.8173a10,10,0,0,1,10-10H298.5869a10,10,0,0,1,10,10v47.9532H182.5405V122.2131h-13v233.64h13V335.03H308.5869ZM413.2627,312.0728a10.97,10.97,0,0,1-10.957,10.9575H182.5405v-171.26H402.3057a10.97,10.97,0,0,1,10.957,10.9575Z"/><path d="M369.1089,173.5a20.3823,20.3823,0,0,0-13.56,5.15,28.3693,28.3693,0,0,1,0,30.57,20.4327,20.4327,0,1,0,13.56-35.72Z"/><circle cx="331.583" cy="193.9346" r="20.4311"/><rect height="12" width="47.7603" x="195.3608" y="290.1223"/><rect height="12" width="111.7393" x="275.7134" y="290.1223"/><rect height="12" width="192.0918" x="195.3608" y="260.7902"/><path d="M201.1508,177.9083h20.4734a5.79,5.79,0,0,1,5.79,5.79v20.4735a5.79,5.79,0,0,1-5.79,5.79H201.1505a5.79,5.79,0,0,1-5.79-5.79V183.6983A5.79,5.79,0,0,1,201.1508,177.9083Z"/><rect height="12" width="41.6919" x="432.1362" y="381.7939"/></g></svg>